
<svg width="292" height="205" viewBox="0 0 292 205" fill="none" xmlns="http://www.w3.org/2000/svg">
<g clip-path="url(#clip0_1019_9303)">
<path d="M79.6075 34.2294C123.374 34.2294 158.841 26.6458 158.841 17.3028C158.841 7.95983 123.374 0.376221 79.6075 0.376221C35.841 0.376221 0.374023 7.95983 0.374023 17.3028C0.374023 26.6458 35.8532 34.2294 79.6075 34.2294Z" stroke="#231F20" stroke-width="0.752294" stroke-miterlimit="10"/>
<path d="M79.6075 51.1559C123.374 51.1559 158.841 43.5845 158.841 34.2293C158.841 24.8742 123.362 17.3027 79.6075 17.3027C35.841 17.3027 0.374023 24.8863 0.374023 34.2293C0.374023 43.5723 35.8532 51.1559 79.6075 51.1559Z" stroke="#231F20" stroke-width="0.752294" stroke-miterlimit="10"/>
<path d="M79.6075 68.0705C123.374 68.0705 158.841 60.4869 158.841 51.1439C158.841 41.8009 123.362 34.2173 79.6075 34.2173C35.841 34.2173 0.374023 41.7888 0.374023 51.1439C0.374023 60.499 35.8532 68.0705 79.6075 68.0705Z" stroke="#231F20" stroke-width="0.752294" stroke-miterlimit="10"/>
<path d="M79.6075 84.997C123.374 84.997 158.841 77.4134 158.841 68.0704C158.841 58.7274 123.362 51.1438 79.6075 51.1438C35.841 51.1438 0.374023 58.7153 0.374023 68.0704C0.374023 77.4255 35.8532 84.997 79.6075 84.997Z" stroke="#231F20" stroke-width="0.752294" stroke-miterlimit="10"/>
<path d="M79.6075 101.924C123.374 101.924 158.841 94.3399 158.841 84.9969C158.841 75.6539 123.362 68.0703 79.6075 68.0703C35.841 68.0703 0.374023 75.6418 0.374023 84.9969C0.374023 94.3521 35.8532 101.924 79.6075 101.924Z" stroke="#231F20" stroke-width="0.752294" stroke-miterlimit="10"/>
<path d="M79.6075 118.838C123.374 118.838 158.841 111.254 158.841 101.911C158.841 92.5685 123.362 84.9849 79.6075 84.9849C35.841 84.9849 0.374023 92.5685 0.374023 101.911C0.374023 111.254 35.8532 118.838 79.6075 118.838Z" stroke="#231F20" stroke-width="0.752294" stroke-miterlimit="10"/>
<path d="M79.6075 135.765C123.374 135.765 158.841 128.181 158.841 118.838C158.841 109.495 123.362 101.912 79.6075 101.912C35.841 101.912 0.374023 109.483 0.374023 118.838C0.374023 128.193 35.8532 135.765 79.6075 135.765Z" stroke="#231F20" stroke-width="0.752294" stroke-miterlimit="10"/>
<path d="M212.072 159.134H291.305M251.689 119.505V198.751C251.689 198.751 264.89 181.23 264.89 159.134C264.89 137.039 251.689 119.518 251.689 119.518M79.6075 152.691C123.374 152.691 158.841 145.108 158.841 135.765C158.841 126.422 123.362 118.838 79.6075 118.838C35.841 118.838 0.374023 126.422 0.374023 135.765C0.374023 145.108 35.8532 152.691 79.6075 152.691Z" stroke="#231F20" stroke-width="0.752294" stroke-miterlimit="10"/>
<path d="M251.692 198.751C273.569 198.751 291.309 181.012 291.309 159.134C291.309 137.257 273.569 119.518 251.692 119.518C229.815 119.518 212.075 137.257 212.075 159.134C212.075 181.012 229.815 198.751 251.692 198.751Z" stroke="#231F20" stroke-width="0.752294" stroke-miterlimit="10"/>
<path d="M251.69 198.751C251.69 198.751 278.106 189.918 278.106 159.134C278.106 128.351 251.69 119.518 251.69 119.518" stroke="#231F20" stroke-width="0.752294" stroke-miterlimit="10"/>
<path d="M251.692 198.751C251.692 198.751 238.49 181.23 238.49 159.134C238.49 137.039 251.692 119.518 251.692 119.518" stroke="#231F20" stroke-width="0.752294" stroke-miterlimit="10"/>
<path d="M251.691 198.751C251.691 198.751 225.275 189.918 225.275 159.134C225.275 128.351 251.691 119.518 251.691 119.518" stroke="#231F20" stroke-width="0.752294" stroke-miterlimit="10"/>
<path d="M216.246 176.874C220.481 175.054 231.814 171.195 251.677 171.195C271.54 171.195 282.885 175.054 287.107 176.874M225.613 188.959C229.727 187.018 237.856 184.409 251.689 184.409C265.521 184.409 273.53 186.993 277.679 188.923M216.246 141.395C220.481 143.215 231.814 147.073 251.677 147.073C271.54 147.073 282.885 143.215 287.107 141.395M225.613 129.31C229.727 131.251 237.856 133.86 251.689 133.86C265.521 133.86 273.53 131.275 277.679 129.358" stroke="#231F20" stroke-width="0.752294" stroke-miterlimit="10"/>
<path d="M44.0557 50.1002H247.612V162.762C247.612 165.274 245.585 167.3 243.074 167.3H48.5937C46.082 167.3 44.0557 165.274 44.0557 162.762V50.1002ZM48.5937 25.6992H243.074C245.585 25.6992 247.612 27.7256 247.612 30.2372V50.1002H44.0557V30.2372C44.0557 27.7256 46.0941 25.6992 48.5937 25.6992Z" fill="white"/>
<path d="M44.0557 50.1002H247.612M44.0557 50.1002V162.762C44.0557 165.274 46.082 167.3 48.5937 167.3H243.074C245.585 167.3 247.612 165.274 247.612 162.762V50.1002M44.0557 50.1002V30.2372C44.0557 27.7256 46.0941 25.6992 48.5937 25.6992H243.074C245.585 25.6992 247.612 27.7256 247.612 30.2372V50.1002" stroke="#231F20" stroke-width="0.752294" stroke-miterlimit="10"/>
<path d="M58.7404 41.7644C60.8759 41.7644 62.5989 40.0414 62.5989 37.9059C62.5989 35.7704 60.8759 34.0474 58.7404 34.0474C56.6048 34.0474 54.8818 35.7704 54.8818 37.9059C54.8818 40.0414 56.6048 41.7644 58.7404 41.7644ZM72.0511 41.7644C74.1867 41.7644 75.9097 40.0414 75.9097 37.9059C75.9097 35.7704 74.1867 34.0474 72.0511 34.0474C69.9156 34.0474 68.1926 35.7704 68.1926 37.9059C68.1926 40.0414 69.9156 41.7644 72.0511 41.7644ZM85.374 41.7644C87.5095 41.7644 89.2325 40.0414 89.2325 37.9059C89.2325 35.7704 87.5095 34.0474 85.374 34.0474C83.2385 34.0474 81.5155 35.7704 81.5155 37.9059C81.5155 40.0414 83.2385 41.7644 85.374 41.7644ZM93.4551 63.7266L97.9446 81.6845L110.806 68.3859L105.722 86.174L123.51 81.09L110.212 93.9518L128.17 98.4413L110.212 102.931L123.51 115.805L105.722 110.721L110.806 128.509L97.9446 115.21L93.4551 133.156L88.9656 115.21L76.0917 128.509L81.1757 110.721L63.3876 115.805L76.6862 102.931L58.7404 98.4413L76.6862 93.9518L63.3876 81.09L81.1757 86.174L76.0917 68.3859L88.9656 81.6845L93.4551 63.7266Z" stroke="#231F20" stroke-width="0.752294" stroke-miterlimit="10"/>
<path d="M151.674 114.057L122.553 106.255L93.4443 98.4534L101.234 127.574L109.036 156.695L123.318 137.294L137.684 151.648L146.627 142.705L132.26 128.351L151.674 114.07V114.057Z" fill="#231F20"/>
<path d="M193.97 189.238H50.8526C38.7795 189.238 28.4294 181.764 24.1826 171.195M151.175 106.013H140.521C139.284 106.013 138.289 105.018 138.276 103.78V93.1266C138.276 91.8889 139.271 90.8818 140.521 90.8818H151.175C152.412 90.8818 153.419 91.8768 153.419 93.1266V103.78C153.419 105.018 152.424 106.013 151.187 106.025L151.175 106.013ZM203.58 106.013H192.927C191.689 106.013 190.694 105.018 190.682 103.78V93.1266C190.682 91.8889 191.677 90.8818 192.927 90.8818H203.58C204.818 90.8818 205.813 91.8768 205.825 93.1023C205.825 93.1023 205.825 93.1023 205.825 93.1144V103.768C205.825 105.006 204.83 106.001 203.605 106.013C203.605 106.013 203.605 106.013 203.592 106.013H203.58Z" stroke="#231F20" stroke-width="0.752294" stroke-miterlimit="10"/>
<path d="M171.778 204.891C171.778 204.891 176.207 189.238 193.971 189.238C176.207 189.238 171.778 173.586 171.778 173.586M177.481 3.76147H240.844C256.678 3.76147 269.576 16.6475 269.576 32.4821V96.4877" stroke="#231F20" stroke-width="0.752294" stroke-miterlimit="10"/>
<path d="M269.576 98.4412C270.656 98.4412 271.53 97.5676 271.53 96.4876C271.53 95.4077 270.656 94.5341 269.576 94.5341C268.496 94.5341 267.623 95.4077 267.623 96.4876C267.623 97.5676 268.496 98.4412 269.576 98.4412ZM177.481 5.71493C178.561 5.71493 179.434 4.8413 179.434 3.7614C179.434 2.68149 178.561 1.80786 177.481 1.80786C176.401 1.80786 175.527 2.68149 175.527 3.7614C175.527 4.8413 176.401 5.71493 177.481 5.71493Z" fill="#231F20"/>
</g>
<defs>
<clipPath id="clip0_1019_9303">
<rect width="291.684" height="205" fill="white"/>
</clipPath>
</defs>
</svg>